<svg xmlns="http://www.w3.org/2000/svg" viewBox="0 0 220.58 185.77"><defs><style>.cls-1{fill:#cf6;}</style></defs><g id="Layer_2" data-name="Layer 2"><g id="Layer_1-2" data-name="Layer 1"><rect class="cls-1" x="9.95" y="9.4" width="201.7" height="168.03"/><path class="cls-1" d="M0,151.46a9.47,9.47,0,0,1,5.66,8.77A9.49,9.49,0,0,1,0,169v4.69H12.06V146.76H0Z"/><path class="cls-1" d="M0,124.52a9.47,9.47,0,0,1,5.66,8.77A9.49,9.49,0,0,1,0,142.07v4.69H12.06V119.82H0Z"/><path class="cls-1" d="M0,97.58a9.47,9.47,0,0,1,5.66,8.77A9.49,9.49,0,0,1,0,115.13v4.69H12.06V92.88H0Z"/><path class="cls-1" d="M0,70.64a9.47,9.47,0,0,1,5.66,8.77A9.49,9.49,0,0,1,0,88.19v4.69H12.06V65.94H0Z"/><path class="cls-1" d="M0,43.7a9.47,9.47,0,0,1,5.66,8.77A9.49,9.49,0,0,1,0,61.25v4.69H12.06V39H0Z"/><path class="cls-1" d="M0,16.76a9.47,9.47,0,0,1,5.66,8.77A9.49,9.49,0,0,1,0,34.31V39H12.06V12.06H0Z"/><path class="cls-1" d="M32.34,0a8.65,8.65,0,0,1-8,5.66,8.63,8.63,0,0,1-8-5.66H12.06V12.06H36.62V0Z"/><path class="cls-1" d="M56.89,0a8.63,8.63,0,0,1-8,5.66A8.65,8.65,0,0,1,40.9,0H36.62V12.06H61.18V0Z"/><path class="cls-1" d="M81.45,0a8.64,8.64,0,0,1-8,5.66,8.64,8.64,0,0,1-8-5.66H61.18V12.06H85.73V0Z"/><path class="cls-1" d="M106,0a8.65,8.65,0,0,1-8,5.66A8.63,8.63,0,0,1,90,0H85.73V12.06h24.56V0Z"/><path class="cls-1" d="M130.56,0a8.63,8.63,0,0,1-8,5.66,8.65,8.65,0,0,1-8-5.66h-4.28V12.06h24.56V0Z"/><path class="cls-1" d="M155.12,0a8.64,8.64,0,0,1-8,5.66,8.64,8.64,0,0,1-8-5.66h-4.28V12.06H159.4V0Z"/><path class="cls-1" d="M179.68,0a8.65,8.65,0,0,1-8,5.66,8.63,8.63,0,0,1-8-5.66H159.4V12.06H184V0Z"/><path class="cls-1" d="M204.23,0a8.63,8.63,0,0,1-8,5.66,8.65,8.65,0,0,1-8-5.66H184V12.06h24.56V0Z"/><path class="cls-1" d="M220.58,34.31a9.63,9.63,0,0,1,0-17.55v-4.7H208.52V39h12.06Z"/><path class="cls-1" d="M220.58,61.25a9.63,9.63,0,0,1,0-17.55V39H208.52V65.94h12.06Z"/><path class="cls-1" d="M220.58,88.19a9.63,9.63,0,0,1,0-17.55v-4.7H208.52V92.88h12.06Z"/><path class="cls-1" d="M220.58,115.12a9.62,9.62,0,0,1,0-17.54v-4.7H208.52v26.94h12.06Z"/><path class="cls-1" d="M220.58,142.07a9.63,9.63,0,0,1,0-17.55v-4.7H208.52v26.94h12.06Z"/><path class="cls-1" d="M220.58,169a9.63,9.63,0,0,1,0-17.55v-4.7H208.52V173.7h12.06Z"/><path class="cls-1" d="M188.24,185.77a8.48,8.48,0,0,1,16,0h4.29V173.7H184v12.07Z"/><path class="cls-1" d="M163.69,185.77a8.48,8.48,0,0,1,16,0H184V173.7H159.4v12.07Z"/><path class="cls-1" d="M139.13,185.77a8.48,8.48,0,0,1,16,0h4.28V173.7H134.85v12.07Z"/><path class="cls-1" d="M114.57,185.77a8.48,8.48,0,0,1,16,0h4.29V173.7H110.29v12.07Z"/><path class="cls-1" d="M90,185.77a8.48,8.48,0,0,1,16,0h4.28V173.7H85.73v12.07Z"/><path class="cls-1" d="M65.46,185.77a8.48,8.48,0,0,1,16,0h4.28V173.7H61.18v12.07Z"/><path class="cls-1" d="M40.9,185.77a8.48,8.48,0,0,1,16,0h4.29V173.7H36.62v12.07Z"/><path class="cls-1" d="M16.35,185.77a8.48,8.48,0,0,1,16,0h4.28V173.7H12.06v12.07Z"/><polygon class="cls-1" points="12.06 12.06 12.06 0 9.06 0 9.05 0.47 9.02 0.93 8.96 1.38 8.88 1.83 8.78 2.27 8.66 2.7 8.51 3.12 8.35 3.53 8.17 3.93 7.97 4.32 7.75 4.7 7.52 5.07 7.26 5.42 6.99 5.77 6.71 6.09 6.41 6.41 6.09 6.71 5.77 6.99 5.42 7.26 5.07 7.52 4.7 7.75 4.32 7.97 3.93 8.17 3.53 8.35 3.12 8.51 2.69 8.66 2.27 8.78 1.83 8.88 1.38 8.96 0.93 9.02 0.47 9.05 0 9.06 0 12.06 12.06 12.06"/><polygon class="cls-1" points="208.52 12.06 220.58 12.06 220.58 9.06 220.11 9.05 219.65 9.02 219.2 8.96 218.75 8.88 218.31 8.78 217.88 8.66 217.46 8.51 217.05 8.35 216.65 8.17 216.26 7.97 215.88 7.75 215.51 7.52 215.16 7.26 214.81 6.99 214.49 6.71 214.17 6.41 213.87 6.09 213.59 5.77 213.32 5.42 213.06 5.07 212.83 4.7 212.61 4.32 212.41 3.93 212.23 3.53 212.07 3.12 211.92 2.7 211.8 2.27 211.7 1.83 211.62 1.38 211.56 0.93 211.53 0.47 211.52 0 208.52 0 208.52 12.06"/><polygon class="cls-1" points="208.52 173.7 208.52 185.77 211.52 185.77 211.53 185.3 211.56 184.84 211.62 184.39 211.7 183.94 211.8 183.5 211.92 183.07 212.07 182.65 212.23 182.24 212.41 181.84 212.61 181.45 212.83 181.07 213.06 180.7 213.32 180.34 213.59 180 213.87 179.67 214.17 179.36 214.49 179.06 214.81 178.77 215.16 178.5 215.51 178.25 215.88 178.02 216.26 177.8 216.65 177.6 217.05 177.42 217.46 177.25 217.88 177.11 218.31 176.99 218.75 176.89 219.2 176.81 219.65 176.75 220.11 176.72 220.58 176.7 220.58 173.7 208.52 173.7"/><polygon class="cls-1" points="12.06 173.7 0 173.7 0 176.7 0.47 176.72 0.93 176.75 1.38 176.81 1.83 176.89 2.27 176.99 2.69 177.11 3.12 177.25 3.53 177.42 3.93 177.6 4.32 177.8 4.7 178.02 5.07 178.25 5.42 178.5 5.76 178.77 6.09 179.06 6.41 179.36 6.71 179.67 6.99 180 7.26 180.34 7.52 180.7 7.75 181.07 7.97 181.45 8.17 181.84 8.35 182.24 8.51 182.65 8.66 183.07 8.78 183.5 8.88 183.94 8.96 184.39 9.02 184.84 9.05 185.3 9.06 185.77 12.06 185.77 12.06 173.7"/><path d="M134.51,97.21c3.06.2,3.86,1.06,3,4a14.28,14.28,0,0,0-.58,2c-.31,2,.19,2.87,2.49,2.79,9.42-.35,18.85-.5,28.28-.78a4.44,4.44,0,0,1,3.81,1.82c6.33,7.06,14.4,13.18,20.86,20.14,2.32,2.49,2.26,5.08,2.29,8,.07,6.41.43,8.5.3,14.71-.06,2.62.43,5,0,7.49-.16.88-1.86,3.43-3.07,3.5-10.58.58-32.54,0-32.54,0s-10.25,1.49-10.35-3.73c2.42-6.29-12.94-4.67-11.79-1,0,4.28-4.69,4.42-4.18.18.18-2.81-.79-2.93-3.14-2.32-14.21-1-4.39-.87-10.85,6.09-3.73-.1-.08-7.57-3.63-6.59-13.5,0-4.1,2-11,5.41-3-.88.27-6.51-4.34-5.28-2.64-.8-4.72-3.07-8.15-1.87-2.5.48-.32,6.21-3.93,5.78-3.26-.63,0-6.24-2.44-7.1-8-5.73-7.91,2.44-12.62.23-2.63-4.55,5.6-4.77,1.73-10.19-.77-2.95-4.4-.67-6.39-1.58-8.21-9.58,74.88,2,67.05-7.53-4.15-2.16-8.11-4.71-12.36-6.62-2.06-.93-2.17-2-2.37-3.94-.53-5.14-.88-7.6-1.22-12.18-.18-2.36,0-5.31-.49-7.6-.52-2.45,2.38-3.29,3.77-3.32C123.5,97.62,131.36,97,134.51,97.21Z"/><path d="M144.91,97.18c-1.59-.21-3.08-.69-4.55,0a2.84,2.84,0,0,1-3.08-.73c-3.52-2.88-6.91-5.91-10.43-8.79-1.76-1.44-2.27-2.83-1.9-5.29a10.29,10.29,0,0,1,5.64-7.87,3.44,3.44,0,0,1,2-.57c15.73,1.16,31-1.92,46.36-4.77.86-.17,2.57.31,2.8-1.52s-1.32-2-2.19-2.45c-10.44-5.91-21.67-10-33-13.65-7.71-2.5-15.46-4.87-23.39-6.59-2.26-.49-3.78-2.87-2.63-4.49,1.82-2.55.2-4.33-1.28-5.51-3.06-2.44-6-5.15-10-6.22-.48-.13-.91-.44-1.39-.57a1.5,1.5,0,0,1-1.29-1.75,1.64,1.64,0,0,1,1.67-1.48c8-.39,16.42.17,24.61-.16,11.34-.46,22.64-.14,33.93.29,9.86.39,22.82,9.16,26.12,20.49,1.57,5.41,2.9,10.74,2.56,16.47-.33,5.39,0,10.81-.18,16.21C194,86.68,189.39,98,179.57,98c-6.61-.07-11.63.64-18.22.5-3.56-.08-7.31-.8-11-1-1.59-.08-.88-1.3-1-2.07-.33-2.82.94-5.8-1.06-8.47-.63-.85-1.2-1.37-2.21-1.1s-1.41,1.05-1.58,2.22C144.1,91.15,145.56,94.1,144.91,97.18Z"/><path d="M26.22,109.26c-1-14.22-.14-28.36-.14-42.5,0-10.06-.32-20.12-.7-30.18-.08-2-.06-4,0-6,.12-4.1,1.34-6.29,5.43-6.21,10.06.2,20.09.18,30.14,0,9.88-.17,19.73.46,29.63.23a1.63,1.63,0,0,1,1.46,2c-.2.86-.17,2-1.76,1.9-2.64-.22-5,.88-7.44,1.76-7.39,2.7-8.54,9.24-7.75,14.92.34,2.5,3.28,4,5.1,5.84a11.19,11.19,0,0,0,3.43,2.44c1.88.82,1.43,2.27,1.52,3.72.1,1.86-1.63,1.49-2.33,1.67C70.42,61.91,60.2,68.88,50.27,76.51,44.06,81.28,40.34,87.91,36,94.14c-3,4.34-6.08,8.61-7.57,13.76C28.08,109.15,27.08,109.08,26.22,109.26Z"/><path d="M60.2,161.32c-8.08.17-18.59.1-27.15.15-4.29,0-5.81-2-6.75-5-2.45-7.69-.33-15.52-.74-23.28-.15-2.74,0-5.5.13-8.25,0-.72-.39-1.73.73-2.06s1.25.74,1.67,1.36A66.38,66.38,0,0,0,33,130.72a11.44,11.44,0,0,0,9.2,4.17c3.4.07,6.83.71,10.27.66,1.21,0,1.61.68,1.65,1.68.31,6.87,3.8,11.82,9.64,15,3,1.62,2.42,4.13,2.28,6.38C65.84,161.31,63.57,161.68,60.2,161.32Z"/><path d="M146.92,54.46c1.37.52,3.7-.72,3.66,1.64,0,2-1,3.7-3.82,3.45-4.1-.36-8.13.8-12.19,1.28a30.33,30.33,0,0,1-3.3.24c-1.9,0-2.21-1.73-2.53-2.91s1-1.4,2-1.49c.47,0,.91-.45,1.38-.5C137.11,55.57,142.06,55,146.92,54.46Z"/></g></g></svg>