<svg width="176" height="15" viewBox="0 0 176 15" fill="none" xmlns="http://www.w3.org/2000/svg">
<path d="M14.618 13.411C14.6433 13.4617 14.656 13.5187 14.656 13.582C14.656 13.696 14.6117 13.7973 14.523 13.886C14.447 13.962 14.352 14 14.238 14H9.925C9.74767 14 9.583 13.9557 9.431 13.867C9.29167 13.7783 9.19033 13.6643 9.127 13.525L7.455 9.763H5.859V13.487C5.859 13.6263 5.80833 13.7467 5.707 13.848C5.60567 13.9493 5.48533 14 5.346 14H1.242C1.10267 14 0.982333 13.9493 0.881 13.848C0.779667 13.7467 0.729 13.6263 0.729 13.487V1.213C0.729 1.07367 0.779667 0.953333 0.881 0.851999C0.982333 0.750666 1.10267 0.699999 1.242 0.699999H8.633C9.773 0.699999 10.7673 0.883666 11.616 1.251C12.4773 1.61833 13.136 2.15033 13.592 2.847C14.048 3.54367 14.276 4.36067 14.276 5.298C14.276 7.02067 13.611 8.26833 12.281 9.041L14.618 13.411ZM8.234 6.248C8.51267 6.248 8.728 6.15933 8.88 5.982C9.032 5.792 9.108 5.55767 9.108 5.279C9.108 5.00033 9.032 4.75967 8.88 4.557C8.74067 4.34167 8.52533 4.234 8.234 4.234H5.859V6.248H8.234ZM20.4816 13.354C20.3169 13.7847 20.0319 14 19.6266 14H16.0356C15.9216 14 15.8202 13.962 15.7316 13.886C15.6556 13.7973 15.6176 13.696 15.6176 13.582L15.6366 13.468L19.7786 1.327C19.8292 1.16233 19.9242 1.01667 20.0636 0.889999C20.2029 0.763332 20.3929 0.699999 20.6336 0.699999H25.9156C26.1562 0.699999 26.3462 0.763332 26.4856 0.889999C26.6249 1.01667 26.7199 1.16233 26.7706 1.327L30.9126 13.468L30.9316 13.582C30.9316 13.696 30.8872 13.7973 30.7986 13.886C30.7226 13.962 30.6276 14 30.5136 14H26.9226C26.5172 14 26.2322 13.7847 26.0676 13.354L25.5926 12.024H20.9566L20.4816 13.354ZM23.2746 4.367L21.9256 8.319H24.6236L23.2746 4.367ZM45.9152 0.699999C46.0545 0.699999 46.1748 0.750666 46.2762 0.851999C46.3775 0.953333 46.4282 1.07367 46.4282 1.213V4.272C46.4282 4.41133 46.3775 4.53167 46.2762 4.633C46.1748 4.73433 46.0545 4.785 45.9152 4.785H41.8302V13.487C41.8302 13.6263 41.7795 13.7467 41.6782 13.848C41.5768 13.9493 41.4565 14 41.3172 14H37.4032C37.2638 14 37.1435 13.9493 37.0422 13.848C36.9408 13.7467 36.8902 13.6263 36.8902 13.487V4.785H32.8052C32.6658 4.785 32.5455 4.73433 32.4442 4.633C32.3428 4.53167 32.2922 4.41133 32.2922 4.272V1.213C32.2922 1.07367 32.3428 0.953333 32.4442 0.851999C32.5455 0.750666 32.6658 0.699999 32.8052 0.699999H45.9152ZM61.9247 0.699999C62.0641 0.699999 62.1844 0.750666 62.2857 0.851999C62.3871 0.953333 62.4377 1.07367 62.4377 1.213V4.101C62.4377 4.24033 62.3871 4.36067 62.2857 4.462C62.1844 4.56333 62.0641 4.614 61.9247 4.614H54.4577V5.83H60.6897C60.8291 5.83 60.9494 5.88067 61.0507 5.982C61.1521 6.08333 61.2027 6.20367 61.2027 6.343V9.212C61.2027 9.35133 61.1521 9.47167 61.0507 9.573C60.9494 9.67433 60.8291 9.725 60.6897 9.725H54.4577V13.487C54.4577 13.6263 54.4071 13.7467 54.3057 13.848C54.2044 13.9493 54.0841 14 53.9447 14H49.8407C49.7014 14 49.5811 13.9493 49.4797 13.848C49.3784 13.7467 49.3277 13.6263 49.3277 13.487V1.213C49.3277 1.07367 49.3784 0.953333 49.4797 0.851999C49.5811 0.750666 49.7014 0.699999 49.8407 0.699999H61.9247ZM77.8013 10.295C77.9406 10.295 78.061 10.3457 78.1623 10.447C78.2636 10.5483 78.3143 10.6687 78.3143 10.808V13.487C78.3143 13.6263 78.2636 13.7467 78.1623 13.848C78.061 13.9493 77.9406 14 77.8013 14H65.7933C65.654 14 65.5336 13.9493 65.4323 13.848C65.331 13.7467 65.2803 13.6263 65.2803 13.487V1.213C65.2803 1.07367 65.331 0.953333 65.4323 0.851999C65.5336 0.750666 65.654 0.699999 65.7933 0.699999H77.6113C77.7506 0.699999 77.871 0.750666 77.9723 0.851999C78.0736 0.953333 78.1243 1.07367 78.1243 1.213V3.892C78.1243 4.03133 78.0736 4.15167 77.9723 4.253C77.871 4.35433 77.7506 4.405 77.6113 4.405H70.2203V5.602H76.5663C76.7056 5.602 76.826 5.65267 76.9273 5.754C77.0286 5.85533 77.0793 5.97567 77.0793 6.115V8.585C77.0793 8.72433 77.0286 8.84467 76.9273 8.946C76.826 9.04733 76.7056 9.098 76.5663 9.098H70.2203V10.295H77.8013ZM88.8329 5.526C90.2262 5.678 91.3409 5.925 92.1769 6.267C93.0256 6.609 93.6399 7.05867 94.0199 7.616C94.3999 8.17333 94.5899 8.87 94.5899 9.706C94.5899 10.618 94.2922 11.416 93.6969 12.1C93.1142 12.7713 92.3036 13.2907 91.2649 13.658C90.2262 14.0127 89.0419 14.19 87.7119 14.19C86.2299 14.19 84.9759 14.0063 83.9499 13.639C82.9239 13.2717 82.1576 12.784 81.6509 12.176C81.1442 11.5553 80.8909 10.8777 80.8909 10.143C80.8909 10.0163 80.9289 9.915 81.0049 9.839C81.0936 9.763 81.2012 9.725 81.3279 9.725H85.2229C85.4889 9.725 85.7042 9.80733 85.8689 9.972C86.0842 10.1747 86.3249 10.314 86.5909 10.39C86.8569 10.4533 87.2306 10.485 87.7119 10.485C88.9152 10.485 89.5169 10.3013 89.5169 9.934C89.5169 9.782 89.4346 9.65533 89.2699 9.554C89.1179 9.44 88.8392 9.345 88.4339 9.269C88.0412 9.18033 87.4586 9.09167 86.6859 9.003C84.9506 8.80033 83.6206 8.36967 82.6959 7.711C81.7712 7.03967 81.3089 6.096 81.3089 4.88C81.3089 4.01867 81.5686 3.25867 82.0879 2.6C82.6072 1.94133 83.3419 1.42833 84.2919 1.061C85.2546 0.693666 86.3692 0.509999 87.6359 0.509999C88.9532 0.509999 90.1059 0.718999 91.0939 1.137C92.0819 1.54233 92.8356 2.049 93.3549 2.657C93.8742 3.265 94.1339 3.86033 94.1339 4.443C94.1339 4.56967 94.0896 4.671 94.0009 4.747C93.9249 4.823 93.8172 4.861 93.6779 4.861H89.5929C89.3776 4.861 89.1812 4.785 89.0039 4.633C88.8646 4.50633 88.6999 4.405 88.5099 4.329C88.3199 4.253 88.0286 4.215 87.6359 4.215C86.7872 4.215 86.3629 4.39233 86.3629 4.747C86.3629 4.937 86.5276 5.089 86.8569 5.203C87.1862 5.30433 87.8449 5.412 88.8329 5.526ZM110.485 0.699999C110.625 0.699999 110.745 0.750666 110.846 0.851999C110.948 0.953333 110.998 1.07367 110.998 1.213V4.272C110.998 4.41133 110.948 4.53167 110.846 4.633C110.745 4.73433 110.625 4.785 110.485 4.785H106.4V13.487C106.4 13.6263 106.35 13.7467 106.248 13.848C106.147 13.9493 106.027 14 105.887 14H101.973C101.834 14 101.714 13.9493 101.612 13.848C101.511 13.7467 101.46 13.6263 101.46 13.487V4.785H97.3755C97.2361 4.785 97.1158 4.73433 97.0145 4.633C96.9131 4.53167 96.8625 4.41133 96.8625 4.272V1.213C96.8625 1.07367 96.9131 0.953333 97.0145 0.851999C97.1158 0.750666 97.2361 0.699999 97.3755 0.699999H110.485ZM122.657 10.105H126.096C126.235 10.105 126.356 10.1557 126.457 10.257C126.558 10.3583 126.609 10.4787 126.609 10.618V13.487C126.609 13.6263 126.558 13.7467 126.457 13.848C126.356 13.9493 126.235 14 126.096 14H114.05C113.911 14 113.79 13.9493 113.689 13.848C113.588 13.7467 113.537 13.6263 113.537 13.487V10.618C113.537 10.4787 113.588 10.3583 113.689 10.257C113.79 10.1557 113.911 10.105 114.05 10.105H117.527V4.595H114.05C113.911 4.595 113.79 4.54433 113.689 4.443C113.588 4.34167 113.537 4.22133 113.537 4.082V1.213C113.537 1.07367 113.588 0.953333 113.689 0.851999C113.79 0.750666 113.911 0.699999 114.05 0.699999H126.096C126.235 0.699999 126.356 0.750666 126.457 0.851999C126.558 0.953333 126.609 1.07367 126.609 1.213V4.082C126.609 4.22133 126.558 4.34167 126.457 4.443C126.356 4.54433 126.235 4.595 126.096 4.595H122.657V10.105ZM143.265 0.699999C143.379 0.699999 143.474 0.744333 143.55 0.833C143.638 0.908999 143.683 1.004 143.683 1.118L143.664 1.251L139.294 13.373C139.23 13.5503 139.129 13.7023 138.99 13.829C138.85 13.943 138.667 14 138.439 14H134.012C133.784 14 133.6 13.943 133.461 13.829C133.321 13.7023 133.226 13.5693 133.176 13.43L128.768 1.251L128.749 1.118C128.749 1.004 128.787 0.908999 128.863 0.833C128.951 0.744333 129.053 0.699999 129.167 0.699999H133.176C133.404 0.699999 133.587 0.769666 133.727 0.909C133.879 1.03567 133.98 1.175 134.031 1.327L136.216 8.604L138.401 1.327C138.451 1.16233 138.546 1.01667 138.686 0.889999C138.825 0.763332 139.015 0.699999 139.256 0.699999H143.265ZM149.622 13.354C149.458 13.7847 149.173 14 148.767 14H145.176C145.062 14 144.961 13.962 144.872 13.886C144.796 13.7973 144.758 13.696 144.758 13.582L144.777 13.468L148.919 1.327C148.97 1.16233 149.065 1.01667 149.204 0.889999C149.344 0.763332 149.534 0.699999 149.774 0.699999H155.056C155.297 0.699999 155.487 0.763332 155.626 0.889999C155.766 1.01667 155.861 1.16233 155.911 1.327L160.053 13.468L160.072 13.582C160.072 13.696 160.028 13.7973 159.939 13.886C159.863 13.962 159.768 14 159.654 14H156.063C155.658 14 155.373 13.7847 155.208 13.354L154.733 12.024H150.097L149.622 13.354ZM152.415 4.367L151.066 8.319H153.764L152.415 4.367ZM174.695 10.105C174.834 10.105 174.954 10.1557 175.056 10.257C175.157 10.3583 175.208 10.4787 175.208 10.618V13.487C175.208 13.6263 175.157 13.7467 175.056 13.848C174.954 13.9493 174.834 14 174.695 14H163.599C163.459 14 163.339 13.9493 163.238 13.848C163.136 13.7467 163.086 13.6263 163.086 13.487V1.213C163.086 1.07367 163.136 0.953333 163.238 0.851999C163.339 0.750666 163.459 0.699999 163.599 0.699999H167.703C167.842 0.699999 167.962 0.750666 168.064 0.851999C168.165 0.953333 168.216 1.07367 168.216 1.213V10.105H174.695Z" fill="#BBEF6E"/>
</svg>
