<svg width="202" height="183" viewBox="0 0 202 183" fill="none" xmlns="http://www.w3.org/2000/svg">
<path d="M0 153.073C1.49598 153.622 2.78974 154.612 3.71049 155.911C4.63125 157.21 5.13571 158.757 5.15729 160.348C5.13571 161.939 4.63125 163.486 3.71049 164.785C2.78974 166.084 1.49598 167.073 0 167.623L0 171.515H10.9889V149.18H0V153.073Z" fill="black"/>
<path d="M0 130.746C1.49741 131.294 2.79259 132.283 3.71368 133.583C4.63477 134.882 5.13824 136.43 5.15729 138.022C5.13697 139.613 4.63301 141.161 3.71208 142.46C2.79116 143.759 1.4967 144.748 0 145.297L0 149.189H10.9889V126.854H0V130.746Z" fill="black"/>
<path d="M0 108.411C1.4967 108.96 2.79116 109.949 3.71208 111.248C4.63301 112.548 5.13697 114.095 5.15729 115.686C5.13824 117.278 4.63477 118.826 3.71368 120.126C2.79259 121.425 1.49741 122.414 0 122.962L0 126.863H10.9889V104.519H0V108.411Z" fill="black"/>
<path d="M0 86.076C1.49598 86.6258 2.78974 87.6155 3.71049 88.9144C4.63125 90.2133 5.13571 91.7603 5.15729 93.3513C5.13571 94.9423 4.63125 96.4893 3.71049 97.7882C2.78974 99.0871 1.49598 100.077 0 100.627L0 104.519H10.9889V82.1837H0V86.076Z" fill="black"/>
<path d="M0 63.7499C1.4967 64.2986 2.79116 65.288 3.71208 66.5872C4.63301 67.8863 5.13697 69.4339 5.15729 71.0252C5.13697 72.6164 4.63301 74.1641 3.71208 75.4632C2.79116 76.7623 1.4967 77.7517 0 78.3005L0 82.1928H10.9889V59.8576H0V63.7499Z" fill="black"/>
<path d="M0 41.4146C1.4967 41.9634 2.79116 42.9528 3.71208 44.2519C4.63301 45.5511 5.13697 47.0987 5.15729 48.69C5.13824 50.2815 4.63477 51.8297 3.71368 53.1291C2.79259 54.4285 1.49741 55.4176 0 55.9653L0 59.8576H10.9889V37.5224H0V41.4146Z" fill="black"/>
<path d="M0 19.0885C1.49741 19.6362 2.79259 20.6253 3.71368 21.9247C4.63477 23.2241 5.13824 24.7722 5.15729 26.3638C5.13571 27.9548 4.63125 29.5018 3.71049 30.8007C2.78974 32.0996 1.49598 33.0893 0 33.6391V37.5314H10.9889V15.1871H0V19.0885Z" fill="black"/>
<path d="M29.4673 4.32877C28.9164 5.82185 27.9248 7.1131 26.6233 8.03206C25.3219 8.95103 23.7719 9.45451 22.1778 9.47605C20.5832 9.45704 19.032 8.95455 17.7301 8.03524C16.4282 7.11594 15.4371 5.82327 14.8884 4.32877H10.9885V15.3054H33.3671V4.32877H29.4673Z" fill="black"/>
<path d="M51.8371 4.32877C51.2884 5.82327 50.2973 7.11594 48.9954 8.03524C47.6935 8.95455 46.1423 9.45704 44.5476 9.47605C42.9536 9.45451 41.4035 8.95103 40.1021 8.03206C38.8007 7.1131 37.8091 5.82185 37.2582 4.32877H33.3674V15.3054H55.7461V4.32877H51.8371Z" fill="black"/>
<path d="M74.2157 4.32877C73.685 5.83545 72.6987 7.14052 71.3929 8.06375C70.0872 8.98698 68.5265 9.48283 66.9263 9.48283C65.3261 9.48283 63.7654 8.98698 62.4596 8.06375C61.1539 7.14052 60.1676 5.83545 59.6368 4.32877H55.7461V15.3054H78.1156V4.32877H74.2157Z" fill="black"/>
<path d="M96.5854 4.32877C96.0345 5.82185 95.0429 7.1131 93.7414 8.03206C92.44 8.95103 90.89 9.45451 89.2959 9.47605C87.7012 9.45704 86.1501 8.95455 84.8482 8.03524C83.5463 7.11594 82.5552 5.82327 82.0065 4.32877H78.1157V15.3054H100.494V4.32877H96.5854Z" fill="black"/>
<path d="M118.964 4.32877C118.415 5.82327 117.424 7.11594 116.122 8.03524C114.82 8.95455 113.269 9.45704 111.674 9.47605C110.08 9.45451 108.53 8.95103 107.229 8.03206C105.927 7.1131 104.936 5.82185 104.385 4.32877H100.485V15.3054H122.864V4.32877H118.964Z" fill="black"/>
<path d="M141.342 4.32877C140.812 5.83545 139.825 7.14052 138.52 8.06375C137.214 8.98698 135.653 9.48283 134.053 9.48283C132.453 9.48283 130.892 8.98698 129.586 8.06375C128.28 7.14052 127.294 5.83545 126.763 4.32877H122.864V15.3054H145.242V4.32877H141.342Z" fill="black"/>
<path d="M163.721 4.32877C163.17 5.82185 162.178 7.1131 160.877 8.03206C159.576 8.95103 158.026 9.45451 156.431 9.47605C154.837 9.45704 153.286 8.95455 151.984 8.03524C150.682 7.11594 149.691 5.82327 149.142 4.32877H145.242V15.3054H167.657V4.32877H163.721Z" fill="black"/>
<path d="M186.091 4.32877C185.542 5.82327 184.551 7.11594 183.249 8.03524C181.947 8.95455 180.396 9.45704 178.801 9.47605C177.207 9.45451 175.657 8.95103 174.356 8.03206C173.054 7.1131 172.063 5.82185 171.512 4.32877H167.657V15.3054H190.036V4.32877H186.091Z" fill="black"/>
<path d="M200.988 33.63C199.479 33.1003 198.171 32.1159 197.246 30.8127C196.321 29.5095 195.824 27.9518 195.824 26.3547C195.824 24.7576 196.321 23.1999 197.246 21.8967C198.171 20.5935 199.479 19.6091 200.988 19.0794V15.1871H190V37.5223H200.988V33.63Z" fill="black"/>
<path d="M200.988 55.9562C199.479 55.4265 198.171 54.4421 197.246 53.1389C196.321 51.8357 195.824 50.278 195.824 48.6809C195.824 47.0838 196.321 45.5261 197.246 44.2229C198.171 42.9197 199.479 41.9353 200.988 41.4056V37.5224H190V59.8576H200.988V55.9562Z" fill="black"/>
<path d="M200.988 78.2914C199.479 77.7617 198.171 76.7773 197.246 75.4741C196.321 74.1709 195.824 72.6132 195.824 71.0161C195.824 69.419 196.321 67.8613 197.246 66.5581C198.171 65.2549 199.479 64.2705 200.988 63.7408V59.8576H190V82.1837H200.988V78.2914Z" fill="black"/>
<path d="M200.988 100.627C199.479 100.097 198.171 99.1125 197.246 97.8093C196.321 96.5061 195.824 94.9484 195.824 93.3513C195.824 91.7542 196.321 90.1965 197.246 88.8933C198.171 87.5901 199.479 86.6057 200.988 86.076V82.1837H190V104.519H200.988V100.627Z" fill="black"/>
<path d="M200.988 122.953C199.479 122.423 198.171 121.439 197.246 120.135C196.321 118.832 195.824 117.274 195.824 115.677C195.824 114.08 196.321 112.523 197.246 111.219C198.171 109.916 199.479 108.932 200.988 108.402V104.51H190V126.845H200.988V122.953Z" fill="black"/>
<path d="M200.988 145.288C199.479 144.758 198.171 143.774 197.246 142.471C196.321 141.167 195.824 139.61 195.824 138.013C195.824 136.416 196.321 134.858 197.246 133.555C198.171 132.251 199.479 131.267 200.988 130.737V126.845H190V149.171H200.988V145.288Z" fill="black"/>
<path d="M200.988 167.623C199.479 167.093 198.171 166.109 197.246 164.806C196.321 163.503 195.824 161.945 195.824 160.348C195.824 158.751 196.321 157.193 197.246 155.89C198.171 154.587 199.479 153.602 200.988 153.073V149.18H190V171.515H200.988V167.623Z" fill="black"/>
<path d="M171.521 182.483C172.052 180.976 173.038 179.671 174.344 178.748C175.649 177.825 177.21 177.329 178.81 177.329C180.411 177.329 181.971 177.825 183.277 178.748C184.583 179.671 185.569 180.976 186.1 182.483H190.009V171.515H167.657V182.483H171.521Z" fill="black"/>
<path d="M149.151 182.483C149.682 180.976 150.668 179.671 151.974 178.748C153.28 177.825 154.84 177.329 156.441 177.329C158.041 177.329 159.602 177.825 160.907 178.748C162.213 179.671 163.199 180.976 163.73 182.483H167.657V171.515H145.242V182.483H149.151Z" fill="black"/>
<path d="M126.773 182.483C127.304 180.976 128.29 179.671 129.596 178.748C130.901 177.825 132.462 177.329 134.062 177.329C135.663 177.329 137.223 177.825 138.529 178.748C139.835 179.671 140.821 180.976 141.352 182.483H145.252V171.515H122.873V182.483H126.773Z" fill="black"/>
<path d="M104.394 182.483C104.925 180.976 105.911 179.671 107.217 178.748C108.523 177.825 110.084 177.329 111.684 177.329C113.284 177.329 114.845 177.825 116.15 178.748C117.456 179.671 118.442 180.976 118.973 182.483H122.882V171.515H100.494V182.483H104.394Z" fill="black"/>
<path d="M82.0065 182.483C82.5372 180.976 83.5235 179.671 84.8293 178.748C86.135 177.825 87.6957 177.329 89.2959 177.329C90.8961 177.329 92.4568 177.825 93.7626 178.748C95.0683 179.671 96.0546 180.976 96.5854 182.483H100.485V171.515H78.1157V182.483H82.0065Z" fill="black"/>
<path d="M59.646 182.483C60.1767 180.976 61.163 179.671 62.4688 178.748C63.7745 177.825 65.3352 177.329 66.9354 177.329C68.5356 177.329 70.0963 177.825 71.4021 178.748C72.7078 179.671 73.6941 180.976 74.2249 182.483H78.1247V171.515H55.7461V182.483H59.646Z" fill="black"/>
<path d="M37.2673 182.483C37.798 180.976 38.7844 179.671 40.0901 178.748C41.3958 177.825 42.9566 177.329 44.5567 177.329C46.1569 177.329 47.7177 177.825 49.0234 178.748C50.3291 179.671 51.3155 180.976 51.8462 182.483H55.7552V171.515H33.3674V182.483H37.2673Z" fill="black"/>
<path d="M14.8975 182.483C15.4282 180.976 16.4146 179.671 17.7203 178.748C19.026 177.825 20.5868 177.329 22.1869 177.329C23.7871 177.329 25.3479 177.825 26.6536 178.748C27.9593 179.671 28.9457 180.976 29.4764 182.483H33.3763V171.515H10.9885V182.483H14.8975Z" fill="black"/>
<path d="M10.9889 15.2963V4.32877H8.25531L8.24619 4.75619L8.21886 5.17452L8.16419 5.58376L8.09129 5.99299L8.00017 6.39314L7.89083 6.78418L7.75416 7.16614L7.60837 7.539L7.44435 7.90276L7.26212 8.25744L7.06166 8.60301L6.85209 8.9395L6.61518 9.26688L6.37827 9.57609L6.11403 9.87619L5.84067 10.1581L5.5491 10.4309L5.25752 10.6947L4.9386 10.9402L4.61969 11.1676L4.28255 11.3767L3.9363 11.5768L3.58094 11.7587L3.21647 11.9224L2.84289 12.077L2.46019 12.2043L2.06838 12.3134L1.66746 12.4044L1.25743 12.4771L0.847399 12.5317L0.428255 12.559L0 12.5681V15.2963H10.9889Z" fill="black"/>
<path d="M190 15.2963H200.988V12.5681L200.569 12.559L200.141 12.5317L199.731 12.4771L199.321 12.4044L198.929 12.3134L198.537 12.2043L198.145 12.077L197.772 11.9224L197.407 11.7587L197.052 11.5768L196.706 11.3767L196.369 11.1676L196.05 10.9402L195.731 10.6947L195.439 10.4309L195.148 10.1581L194.874 9.87619L194.619 9.57609L194.373 9.26688L194.136 8.9395L193.927 8.60301L193.726 8.25744L193.544 7.90276L193.38 7.539L193.234 7.16614L193.107 6.78418L192.988 6.39314L192.897 5.99299L192.824 5.58376L192.769 5.17452L192.742 4.75619L192.733 4.32877H190V15.2963Z" fill="black"/>
<path d="M190 171.515V182.483H192.733L192.742 182.065L192.769 181.637L192.824 181.228L192.897 180.828L192.988 180.428L193.098 180.037L193.234 179.655L193.38 179.273L193.544 178.909L193.726 178.554L193.927 178.209L194.136 177.872L194.373 177.554L194.619 177.245L194.874 176.945L195.148 176.654L195.439 176.381L195.731 176.126L196.05 175.881L196.369 175.653L196.706 175.435L197.052 175.235L197.407 175.053L197.772 174.889L198.145 174.744L198.537 174.617L198.929 174.498L199.321 174.407L199.731 174.335L200.141 174.28L200.569 174.253L200.988 174.244V171.515H190Z" fill="black"/>
<path d="M10.9889 171.515H0V174.244L0.428255 174.253L0.847399 174.28L1.25743 174.335L1.66746 174.407L2.06838 174.498L2.46019 174.617L2.84289 174.744L3.21647 174.889L3.58094 175.053L3.9363 175.235L4.28255 175.435L4.61969 175.653L4.9386 175.881L5.25752 176.126L5.5491 176.381L5.84067 176.654L6.11403 176.945L6.36916 177.245L6.61518 177.554L6.85209 177.872L7.06166 178.209L7.26212 178.554L7.44435 178.909L7.60837 179.273L7.75416 179.655L7.89083 180.037L8.00017 180.428L8.09129 180.828L8.16419 181.228L8.21886 181.646L8.24619 182.065L8.25531 182.483H10.9889V171.515Z" fill="black"/>
<path d="M196.145 10.7343H6.83081V172.725H196.145V10.7343Z" fill="#BBEF6E"/>
<path d="M1.01147 148.744C2.50504 149.296 3.79615 150.287 4.71502 151.585C5.63389 152.884 6.13751 154.429 6.15965 156.019C6.1413 157.61 5.63917 159.157 4.71979 160.456C3.80041 161.755 2.50718 162.745 1.01147 163.294V167.196H12.0003V144.888H1.01147V148.744Z" fill="#BBEF6E"/>
<path d="M1.01147 126.418C2.50718 126.967 3.80041 127.956 4.71979 129.256C5.63917 130.555 6.1413 132.102 6.15965 133.693C6.13751 135.282 5.63389 136.828 4.71502 138.127C3.79615 139.425 2.50504 140.416 1.01147 140.968V144.888H12.0003V122.516H1.01147V126.418Z" fill="#BBEF6E"/>
<path d="M1.01147 104.082C2.50576 104.634 3.79756 105.624 4.7166 106.923C5.63564 108.222 6.13877 109.768 6.15965 111.358C6.14003 112.948 5.6374 114.495 4.71819 115.794C3.79898 117.093 2.50647 118.083 1.01147 118.633V122.525H12.0003V100.19H1.01147V104.082Z" fill="#BBEF6E"/>
<path d="M1.01147 81.7471C2.50504 82.2995 3.79615 83.2901 4.71502 84.5887C5.63389 85.8872 6.13751 87.4329 6.15965 89.0224C6.1413 90.613 5.63917 92.1603 4.71979 93.4596C3.80041 94.7588 2.50718 95.7486 1.01147 96.2978V100.199H12.0003V77.8548H1.01147V81.7471Z" fill="#BBEF6E"/>
<path d="M1.01147 59.4028C2.50718 59.952 3.80041 60.9417 4.71979 62.241C5.63917 63.5403 6.1413 65.0876 6.15965 66.6781C6.13751 68.2677 5.63389 69.8134 4.71502 71.1119C3.79615 72.4105 2.50504 73.4011 1.01147 73.9535V77.8458H12.0003V55.5196H1.01147V59.4028Z" fill="#BBEF6E"/>
<path d="M1.01147 37.0858C2.50576 37.6372 3.79756 38.6275 4.7166 39.9262C5.63564 41.225 6.13877 42.7713 6.15965 44.3611C6.14003 45.9513 5.6374 47.4982 4.71819 48.7972C3.79898 50.0962 2.50647 51.0862 1.01147 51.6365V55.5288H12.0003V33.1935H1.01147V37.0858Z" fill="#BBEF6E"/>
<path d="M1.01147 14.7506C2.50504 15.303 3.79615 16.2936 4.71502 17.5921C5.63389 18.8907 6.13751 20.4363 6.15965 22.0259C6.1413 23.6164 5.63917 25.1638 4.71979 26.4631C3.80041 27.7623 2.50718 28.7521 1.01147 29.3012V33.2026H12.0003V10.8583H1.01147V14.7506Z" fill="#BBEF6E"/>
<path d="M30.479 0C29.9281 1.49308 28.9365 2.78433 27.6351 3.7033C26.3336 4.62226 24.7836 5.12575 23.1896 5.14728C21.5955 5.12575 20.0455 4.62226 18.744 3.7033C17.4426 2.78433 16.451 1.49308 15.9001 0L12.0002 0V10.9675H34.3789V0H30.479Z" fill="#BBEF6E"/>
<path d="M52.8486 0C52.2987 1.49379 51.3074 2.78575 50.0057 3.70488C48.7041 4.62402 47.1535 5.12701 45.5591 5.14728C43.9647 5.12701 42.4141 4.62402 41.1125 3.70488C39.8108 2.78575 38.8195 1.49379 38.2697 0L34.3789 0V10.9675H56.7575V0H52.8486Z" fill="#BBEF6E"/>
<path d="M75.2275 0C74.6776 1.49379 73.6863 2.78575 72.3847 3.70488C71.083 4.62402 69.5324 5.12701 67.938 5.14728C66.3433 5.12828 64.7921 4.62578 63.4902 3.70648C62.1884 2.78717 61.1973 1.49451 60.6486 0H56.7578V10.9675H79.1273V0H75.2275Z" fill="#BBEF6E"/>
<path d="M97.6057 0C97.0548 1.49308 96.0632 2.78433 94.7618 3.7033C93.4604 4.62226 91.9103 5.12575 90.3163 5.14728C88.7222 5.12575 87.1722 4.62226 85.8708 3.7033C84.5693 2.78433 83.5777 1.49308 83.0268 0L79.127 0V10.9675H101.506V0H97.6057Z" fill="#BBEF6E"/>
<path d="M119.975 0C119.425 1.49379 118.434 2.78575 117.132 3.70488C115.831 4.62402 114.28 5.12701 112.686 5.14728C111.091 5.12701 109.541 4.62402 108.239 3.70488C106.937 2.78575 105.946 1.49379 105.396 0L101.505 0V10.9675H123.92V0H119.975Z" fill="#BBEF6E"/>
<path d="M142.354 0C141.804 1.49379 140.813 2.78575 139.511 3.70488C138.21 4.62402 136.659 5.12701 135.065 5.14728C133.47 5.12828 131.919 4.62578 130.617 3.70648C129.315 2.78717 128.324 1.49451 127.775 0L123.921 0V10.9675H146.29V0H142.354Z" fill="#BBEF6E"/>
<path d="M164.733 0C164.182 1.49308 163.19 2.78433 161.889 3.7033C160.587 4.62226 159.037 5.12575 157.443 5.14728C155.849 5.12575 154.299 4.62226 152.998 3.7033C151.696 2.78433 150.705 1.49308 150.154 0L146.254 0V10.9675H168.633V0H164.733Z" fill="#BBEF6E"/>
<path d="M187.102 0C186.552 1.49379 185.561 2.78575 184.259 3.70488C182.958 4.62402 181.407 5.12701 179.813 5.14728C178.218 5.12701 176.668 4.62402 175.366 3.70488C174.064 2.78575 173.073 1.49379 172.523 0L168.623 0V10.9675H190.993V0H187.102Z" fill="#BBEF6E"/>
<path d="M202 29.2921C200.49 28.7624 199.183 27.778 198.258 26.4748C197.333 25.1716 196.836 23.6139 196.836 22.0168C196.836 20.4197 197.333 18.862 198.258 17.5588C199.183 16.2556 200.49 15.2712 202 14.7415V10.8583H191.002V33.1935H202V29.2921Z" fill="#BBEF6E"/>
<path d="M202 51.6274C200.49 51.0977 199.183 50.1132 198.258 48.81C197.333 47.5068 196.836 45.9491 196.836 44.3521C196.836 42.755 197.333 41.1973 198.258 39.8941C199.183 38.5909 200.49 37.6064 202 37.0767V33.1935H191.002V55.5197H202V51.6274Z" fill="#BBEF6E"/>
<path d="M202 73.9535C200.49 73.4238 199.183 72.4393 198.258 71.1361C197.333 69.8329 196.836 68.2752 196.836 66.6782C196.836 65.0811 197.333 63.5234 198.258 62.2202C199.183 60.917 200.49 59.9325 202 59.4028V55.5196H191.002V77.8549H202V73.9535Z" fill="#BBEF6E"/>
<path d="M202 96.2887C200.49 95.759 199.183 94.7746 198.258 93.4714C197.333 92.1682 196.836 90.6105 196.836 89.0134C196.836 87.4163 197.333 85.8586 198.258 84.5554C199.183 83.2522 200.49 82.2678 202 81.7381V77.8458H191.002V100.181H202V96.2887Z" fill="#BBEF6E"/>
<path d="M202 118.624C200.49 118.094 199.183 117.11 198.258 115.807C197.333 114.503 196.836 112.946 196.836 111.349C196.836 109.751 197.333 108.194 198.258 106.891C199.183 105.587 200.49 104.603 202 104.073V100.181H191.002V122.516H202V118.624Z" fill="#BBEF6E"/>
<path d="M202 140.959C200.49 140.429 199.183 139.445 198.258 138.142C197.333 136.839 196.836 135.281 196.836 133.684C196.836 132.087 197.333 130.529 198.258 129.226C199.183 127.923 200.49 126.938 202 126.408V122.516H191.002V144.888H202V140.959Z" fill="#BBEF6E"/>
<path d="M202 163.285C200.49 162.756 199.183 161.771 198.258 160.468C197.333 159.165 196.836 157.607 196.836 156.01C196.836 154.413 197.333 152.855 198.258 151.552C199.183 150.249 200.49 149.264 202 148.735V144.888H191.002V167.223H202V163.285Z" fill="#BBEF6E"/>
<path d="M172.532 178.154C173.063 176.648 174.049 175.342 175.355 174.419C176.661 173.496 178.222 173 179.822 173C181.422 173 182.983 173.496 184.289 174.419C185.594 175.342 186.581 176.648 187.111 178.154H191.011V167.187H168.633V178.154H172.532Z" fill="#BBEF6E"/>
<path d="M150.154 178.154C150.684 176.648 151.671 175.342 152.977 174.419C154.282 173.496 155.843 173 157.443 173C159.043 173 160.604 173.496 161.91 174.419C163.216 175.342 164.202 176.648 164.733 178.154H168.633V167.187H146.254V178.154H150.154Z" fill="#BBEF6E"/>
<path d="M127.784 178.154C128.315 176.648 129.301 175.342 130.607 174.419C131.913 173.496 133.474 173 135.074 173C136.674 173 138.235 173.496 139.54 174.419C140.846 175.342 141.832 176.648 142.363 178.154H146.263V167.187H123.921V178.154H127.784Z" fill="#BBEF6E"/>
<path d="M105.405 178.154C105.936 176.648 106.922 175.342 108.228 174.419C109.534 173.496 111.094 173 112.695 173C114.295 173 115.856 173.496 117.161 174.419C118.467 175.342 119.453 176.648 119.984 178.154H123.92V167.187H101.505V178.154H105.405Z" fill="#BBEF6E"/>
<path d="M83.0268 178.154C83.5575 176.648 84.5439 175.342 85.8496 174.419C87.1554 173.496 88.7161 173 90.3163 173C91.9165 173 93.4772 173.496 94.7829 174.419C96.0887 175.342 97.075 176.648 97.6057 178.154H101.506V167.187H79.127V178.154H83.0268Z" fill="#BBEF6E"/>
<path d="M60.6577 178.154C61.1884 176.648 62.1747 175.342 63.4805 174.419C64.7862 173.496 66.3469 173 67.9471 173C69.5473 173 71.108 173.496 72.4138 174.419C73.7195 175.342 74.7058 176.648 75.2366 178.154H79.1364V167.187H56.7578V178.154H60.6577Z" fill="#BBEF6E"/>
<path d="M38.2697 178.154C38.8004 176.648 39.7867 175.342 41.0925 174.419C42.3982 173.496 43.9589 173 45.5591 173C47.1593 173 48.72 173.496 50.0258 174.419C51.3315 175.342 52.3178 176.648 52.8486 178.154H56.7575V167.187H34.3789V178.154H38.2697Z" fill="#BBEF6E"/>
<path d="M15.9092 178.154C16.4399 176.648 17.4263 175.342 18.732 174.419C20.0378 173.496 21.5985 173 23.1987 173C24.7989 173 26.3596 173.496 27.6653 174.419C28.9711 175.342 29.9574 176.648 30.4881 178.154H34.388V167.187H12.0002V178.154H15.9092Z" fill="#BBEF6E"/>
<path d="M12.0003 10.9675V0H9.26678L9.25767 0.427425L9.23033 0.845755L9.17566 1.25499L9.10277 1.66423L9.01165 2.06437L8.90231 2.44632L8.76563 2.83737L8.61984 3.21023L8.45583 3.574L8.27359 3.92867L8.07313 4.27425L7.85445 4.61073L7.62665 4.92902L7.38063 5.24732L7.1255 5.53833L6.85215 5.82934L6.56057 6.10217L6.25988 6.3568L5.95008 6.60235L5.63117 6.83879L5.29403 7.04796L4.94778 7.24803L4.59242 7.42991L4.22795 7.59361L3.84525 7.73911L3.46255 7.87553L3.07074 7.98466L2.67894 8.0756L2.26891 8.14835L1.85887 8.20292L1.43062 8.2302L1.01147 8.23929V10.9675H12.0003Z" fill="#BBEF6E"/>
<path d="M191.011 10.9675H202V8.23929L201.572 8.2302L201.153 8.20292L200.743 8.14835L200.333 8.0756L199.932 7.98466L199.54 7.87553L199.157 7.73911L198.784 7.59361L198.419 7.42991L198.064 7.24803L197.718 7.04796L197.38 6.83879L197.061 6.60235L196.743 6.3568L196.442 6.10217L196.159 5.82934L195.886 5.53833L195.622 5.24732L195.385 4.92902L195.148 4.61073L194.938 4.27425L194.738 3.92867L194.556 3.574L194.392 3.21023L194.246 2.83737L194.109 2.44632L194 2.06437L193.909 1.66423L193.836 1.25499L193.781 0.845755L193.754 0.427425L193.745 0H191.011V10.9675Z" fill="#BBEF6E"/>
<path d="M191.011 167.187V178.154H193.745L193.754 177.727L193.781 177.308L193.836 176.899L193.909 176.49L194 176.099L194.109 175.699L194.246 175.317L194.392 174.944L194.556 174.58L194.738 174.226L194.938 173.88L195.148 173.543L195.385 173.225L195.622 172.907L195.886 172.616L196.159 172.325L196.442 172.052L196.743 171.797L197.061 171.552L197.38 171.315L197.718 171.106L198.064 170.906L198.419 170.724L198.784 170.561L199.157 170.415L199.54 170.279L199.932 170.17L200.333 170.079L200.743 170.006L201.153 169.951L201.572 169.924L202 169.915V167.187H191.011Z" fill="#BBEF6E"/>
<path d="M12.0003 167.187H1.01147V169.915L1.43062 169.924L1.85887 169.951L2.26891 170.006L2.67894 170.079L3.07074 170.17L3.46255 170.279L3.84525 170.415L4.22795 170.561L4.59242 170.724L4.94778 170.906L5.29403 171.106L5.63117 171.315L5.95008 171.552L6.25988 171.797L6.56057 172.052L6.85215 172.325L7.1255 172.616L7.38063 172.907L7.62665 173.225L7.85445 173.543L8.07313 173.88L8.27359 174.226L8.45583 174.58L8.61984 174.944L8.76563 175.317L8.8932 175.699L9.01165 176.099L9.10277 176.49L9.17566 176.899L9.23033 177.308L9.25767 177.736L9.26678 178.154H12.0003V167.187Z" fill="#BBEF6E"/>
<path d="M125.344 93.3268C128.302 93.5236 129.14 94.37 128.302 97.2633C128.071 97.9064 127.884 98.5639 127.74 99.2316C127.434 101.2 127.927 102.066 130.185 101.977C139.484 101.633 148.782 101.485 158.081 101.21C158.807 101.174 159.53 101.32 160.186 101.632C160.841 101.945 161.409 102.415 161.838 103.001C168.069 109.949 176.037 115.982 182.407 122.821C184.694 125.282 184.625 127.821 184.665 130.694C184.734 137.003 185.089 139.05 184.96 145.161C184.901 147.74 185.384 150.082 184.96 152.542C184.803 153.399 183.126 155.908 181.933 155.977C171.491 156.548 149.837 155.977 149.837 155.977C149.837 155.977 139.74 157.443 139.642 152.316C142.028 146.126 126.882 147.71 128.016 151.332C128.016 155.544 123.391 155.682 123.894 151.509C124.072 148.744 123.115 148.635 120.798 149.226C106.777 148.242 116.469 148.37 110.1 155.219C106.422 155.131 110.021 147.769 106.51 148.744C93.2085 148.744 102.467 150.712 95.6637 154.068C92.7056 153.192 95.9398 147.651 91.3843 148.862C88.791 148.074 86.7301 145.84 83.3578 147.021C80.8927 147.504 83.0423 153.133 79.4826 152.71C76.2681 152.09 79.4826 146.569 77.0767 145.732C69.1883 140.083 69.277 148.124 64.6327 145.949C62.0394 141.471 70.1546 141.264 66.3386 135.92C65.5793 133.017 62 135.261 60.0279 134.365C51.9324 124.937 133.863 136.334 126.143 126.955C122.05 124.839 118.146 122.329 113.955 120.44C111.924 119.525 111.825 118.471 111.628 116.572C111.105 111.514 110.76 109.083 110.425 104.575C110.247 102.253 110.425 99.3497 109.942 97.096C109.429 94.6849 112.289 93.8582 113.659 93.8287C114.487 93.7303 122.238 93.1201 125.344 93.3268Z" fill="black"/>
<path d="M135.579 93.2973C134.011 93.0906 132.542 92.6281 131.092 93.2973C130.572 93.4932 130.005 93.5295 129.464 93.4015C128.923 93.2735 128.432 92.987 128.055 92.5789C124.604 89.6953 121.261 86.7429 117.83 83.9086C116.095 82.4915 115.592 81.1235 115.956 78.7025C116.173 77.0657 116.788 75.507 117.749 74.1633C118.71 72.8197 119.988 71.7323 121.469 70.9967C122.05 70.6059 122.74 70.4063 123.441 70.4259C138.951 71.5675 154.008 68.5364 169.144 65.7316C170.002 65.5741 171.688 66.0465 171.915 64.2455C172.142 62.4446 170.613 62.2773 169.755 61.8246C159.461 56.0083 148.388 51.9832 137.216 48.3911C129.613 45.9307 121.971 43.6082 114.152 41.9056C111.924 41.4234 110.425 39.0811 111.559 37.4868C113.353 34.9773 111.756 33.2255 110.297 32.0642C107.279 29.6629 104.38 26.9959 100.436 25.9429C99.9627 25.815 99.5387 25.5099 99.0654 25.3819C98.8665 25.357 98.6747 25.2919 98.5017 25.1907C98.3288 25.0895 98.1782 24.9543 98.0593 24.7932C97.9403 24.6321 97.8554 24.4485 97.8097 24.2537C97.764 24.0588 97.7585 23.8568 97.7934 23.6597C97.8331 23.2544 98.0249 22.879 98.3303 22.6088C98.6357 22.3387 99.0322 22.1938 99.4401 22.2032C107.329 21.8292 115.631 22.3705 123.707 22.0457C134.879 21.593 146.031 21.9079 157.154 22.341C166.886 22.7149 179.665 31.3458 182.919 42.5059C184.467 47.8203 185.779 53.0657 185.434 58.7048C185.118 64.0093 185.434 69.3434 185.256 74.6676C183.994 82.9934 179.488 94.1535 169.805 94.124C163.287 94.0649 158.337 94.7538 151.839 94.616C148.319 94.5471 144.631 93.8287 140.992 93.6319C139.415 93.563 140.125 92.3525 140.006 91.5947C139.691 88.8195 140.943 85.8867 138.971 83.2591C138.35 82.4226 137.788 81.9108 136.782 82.1765C135.776 82.4422 135.401 83.1607 135.234 84.3613C134.79 87.3629 136.24 90.2661 135.579 93.2973Z" fill="black"/>
<path d="M18.5544 105.196C17.5684 91.1912 18.4262 77.2755 18.4262 63.3598C18.4262 53.4594 18.1107 43.559 17.7261 33.6585C17.6571 31.6903 17.667 29.722 17.7261 27.7537C17.8543 23.7286 19.0573 21.5635 23.0902 21.6422C32.9507 21.839 42.9 21.8194 52.8098 21.6422C62.552 21.4749 72.2646 22.0949 82.0265 21.8686C82.2577 21.8865 82.4824 21.9542 82.685 22.067C82.8876 22.1798 83.0633 22.3351 83.2001 22.5221C83.3369 22.7091 83.4315 22.9234 83.4774 23.1504C83.5233 23.3773 83.5195 23.6115 83.4661 23.8368C83.2689 24.6832 83.2985 25.8051 81.7306 25.7165C79.1275 25.4902 76.8004 26.5728 74.3944 27.4388C67.1075 30.096 65.9736 36.5322 66.7525 42.132C67.0878 44.5825 69.9868 46.0685 71.7814 47.8793C72.7468 48.8831 73.8946 49.6946 75.1635 50.2708C77.0075 51.0778 76.5736 52.5146 76.6525 53.9318C76.7609 55.7623 75.0551 55.408 74.355 55.5753C62.1477 58.5867 52.0703 65.4462 42.2788 72.965C36.1554 77.6593 32.4774 84.1842 28.2078 90.3252C25.2497 94.5865 22.2126 98.7888 20.7533 103.857C20.3983 105.077 19.4123 105.018 18.5544 105.196Z" fill="black"/>
<path d="M52.0705 156.42C44.1032 156.597 33.7399 156.518 25.2894 156.568C21.0691 156.568 19.5703 154.599 18.6434 151.647C16.2276 144.079 18.318 136.373 17.9039 128.746C17.7658 126.049 17.9039 123.323 18.0419 120.627C18.0419 119.908 17.6574 118.914 18.7519 118.59C19.8464 118.265 19.9943 119.318 20.3986 119.928C21.8788 122.143 23.4923 124.266 25.2302 126.286C26.3267 127.617 27.7149 128.679 29.2877 129.391C30.8605 130.102 32.5759 130.444 34.3019 130.389C37.6545 130.468 41.0366 131.088 44.4286 131.039C45.6218 131.039 46.0063 131.708 46.0556 132.692C46.3613 139.453 49.8026 144.325 55.5513 147.454C58.5094 149.049 57.9474 151.519 57.7995 153.733C57.6812 156.41 55.3935 156.774 52.0705 156.42Z" fill="black"/>
<path d="M137.551 51.2549C138.902 51.7667 141.189 50.5464 141.16 52.8689C141.16 54.8372 140.174 56.5102 137.393 56.2642C133.35 55.9099 129.376 57.0515 125.373 57.5239C124.294 57.6666 123.207 57.7455 122.119 57.7601C120.245 57.7601 119.94 56.0575 119.624 54.8963C119.309 53.735 120.61 53.5185 121.646 53.4299C122.109 53.4299 122.543 52.987 123.006 52.9378C127.907 52.3473 132.788 51.8061 137.551 51.2549Z" fill="black"/>
</svg>
