<svg width="344" height="99" viewBox="0 0 344 99" fill="none" xmlns="http://www.w3.org/2000/svg">
<path d="M76.4184 52.6352C78.5522 52.7838 79.1117 53.403 78.5203 55.4917C78.3535 55.9599 78.2199 56.44 78.1207 56.9283C77.9049 58.373 78.2486 59.0005 79.8549 58.9427C86.4403 58.6868 93.0258 58.5794 99.6112 58.3813C100.129 58.3497 100.647 58.4534 101.116 58.6828C101.586 58.9122 101.991 59.2599 102.296 59.694C106.716 64.7878 112.358 69.2047 116.866 74.216C118.464 76.024 118.464 77.8816 118.464 79.9951C118.512 84.6183 118.76 86.1292 118.672 90.6038C118.632 92.4944 118.976 94.2364 118.672 96.0114C118.568 96.6388 117.377 98.4881 116.53 98.4881C109.138 98.9092 93.801 98.4881 93.801 98.4881C93.801 98.4881 86.6082 99.5697 86.6082 95.805C88.2945 91.2643 77.5692 92.4284 78.3684 95.0537C78.3684 98.1414 75.0917 98.2405 75.4514 95.1776C75.5792 93.1549 74.8999 93.0723 73.2615 93.5264C63.3355 92.8412 70.1926 92.8989 65.6771 97.9268C63.0797 97.8607 65.6212 92.4614 63.1437 93.1714C53.7131 93.1714 60.2825 94.5914 55.4714 97.0764C53.3855 96.4407 55.6632 92.3706 52.4424 93.2705C50.5962 92.6843 49.1497 91.0496 46.7521 91.9165C45.0098 92.2632 46.5283 96.3912 44.0108 96.0444C41.7331 95.5904 44.0108 91.545 42.3085 90.9258C36.7141 86.7979 36.7781 92.6843 33.5173 91.0827C31.6792 87.7803 37.4254 87.6482 34.7241 83.735C34.1887 81.605 31.6472 83.2479 30.2566 82.5957C24.5184 75.6855 82.5562 84.0157 77.0897 77.1633C74.1886 75.6112 71.4234 73.7702 68.4504 72.3832C67.0118 71.7145 66.9399 70.9219 66.804 69.5432C66.4364 65.8363 66.1886 64.0613 65.9489 60.759C65.9164 58.9467 65.7776 57.1381 65.5333 55.3431C65.1736 53.5764 67.1956 52.9737 68.1627 52.9489C68.7301 52.9324 74.2126 52.4784 76.4184 52.6352Z" fill="#BBEF6E"/>
<path d="M83.6832 52.6104C82.5723 52.4618 81.5253 52.1151 80.4864 52.6104C80.1119 52.7527 79.7045 52.7744 79.3179 52.6727C78.9313 52.571 78.5835 52.3507 78.3205 52.0408C75.859 49.9603 73.5253 47.7725 71.0318 45.6921C70.4612 45.2713 70.0285 44.6807 69.7914 43.9991C69.5544 43.3176 69.5243 42.5775 69.7052 41.8779C69.8619 40.6714 70.3032 39.5232 70.9902 38.5342C71.6773 37.5452 72.589 36.7458 73.6452 36.2061C74.0579 35.9193 74.5466 35.7722 75.0438 35.7851C86.0328 36.6106 96.7261 34.4063 107.419 32.3424C108.027 32.2268 109.218 32.5735 109.377 31.2526C109.537 29.9317 108.458 29.8408 107.851 29.4858C100.554 25.2176 92.7141 22.295 84.7781 19.6366C79.4234 17.8699 74.0049 16.1609 68.4664 14.8895C66.868 14.5345 65.8291 12.8173 66.6283 11.6532C67.907 9.80393 66.7721 8.52428 65.7331 7.67392C63.5993 5.9402 61.5373 3.98356 58.7561 3.20752C58.4205 3.1167 58.1168 2.89379 57.7811 2.79472C57.6403 2.77785 57.5042 2.73137 57.3814 2.65814C57.2586 2.58492 57.1516 2.48649 57.067 2.36893C56.9824 2.25137 56.922 2.11717 56.8895 1.97458C56.857 1.83199 56.8531 1.68404 56.878 1.53984C56.9061 1.24211 57.0418 0.966263 57.2581 0.767334C57.4744 0.568404 57.7553 0.461011 58.0448 0.466578C63.6632 0.194135 69.5293 0.590416 75.2356 0.350996C83.1557 0.0207627 91.0518 0.251926 98.9319 0.565648C105.821 0.846346 114.916 7.17032 117.178 15.3519C118.273 19.2486 119.208 23.0958 118.96 27.232C118.736 31.1205 118.96 35.0338 118.84 38.9305C117.937 45.0398 114.74 53.2131 107.891 53.1966C103.272 53.1471 99.7631 53.6589 95.1597 53.5599C92.6742 53.5021 90.0608 52.982 87.4794 52.8581C86.3685 52.8003 86.864 51.917 86.8081 51.3638C86.5763 49.3329 87.4634 47.1781 86.0648 45.2545C85.6252 44.6436 85.2656 44.2638 84.5223 44.4289C83.7791 44.594 83.5393 45.1802 83.4194 46.0305C83.1157 48.2596 84.1387 50.3896 83.6832 52.6104Z" fill="#BBEF6E"/>
<path d="M0.798141 61.3286C0.0628777 51.0666 0.686254 40.8624 0.686254 30.6664C0.686254 23.4096 0.462478 16.1444 0.19075 8.88753C0.142798 7.45927 0.15079 6.00624 0.19075 4.5367C0.278662 1.57286 1.13381 0.0290169 3.99494 0.0290169C11.0119 0.194134 18.0209 0.177622 25.0379 0.0290169C32.0548 -0.119588 38.8161 0.35925 45.7371 0.194134C45.9059 0.204572 46.0703 0.254117 46.218 0.339095C46.3658 0.424074 46.4931 0.542307 46.5906 0.685032C46.688 0.827758 46.7532 0.991316 46.7812 1.16358C46.8091 1.33585 46.7992 1.51241 46.7521 1.68018C46.6163 2.29937 46.6402 3.15798 45.5214 3.05891C43.6832 2.90205 41.9969 3.69461 40.3266 4.32205C35.1637 6.23741 34.3645 10.9597 34.916 15.0629C35.1557 16.8627 37.2097 17.9194 38.4724 19.2734C39.1586 20.0087 39.9718 20.6051 40.87 21.0319C42.1727 21.618 41.861 22.683 41.925 23.715C41.9969 25.0607 40.7901 24.7965 40.3266 24.9204C31.6552 27.166 24.5184 32.2268 17.5813 37.7004C13.2417 41.1431 10.6443 45.9232 7.61532 50.3896C5.51342 53.5186 3.37156 56.598 2.33261 60.2966C2.08485 61.2461 1.38156 61.2048 0.798141 61.3286Z" fill="#BBEF6E"/>
<path d="M24.5104 98.8927C18.868 99.0165 11.5314 98.9587 5.55336 99C2.55636 99 1.50142 97.547 0.838083 95.4004C-0.872205 89.8525 0.614307 84.2386 0.318603 78.6081C0.214707 76.6349 0.318603 74.6453 0.414507 72.6556C0.414507 72.1355 0.134787 71.4007 0.918003 71.1696C1.70122 70.9384 1.79712 71.6979 2.08483 72.152C3.13294 73.774 4.27523 75.329 5.50541 76.8083C6.27838 77.7807 7.25627 78.5576 8.36437 79.0799C9.47247 79.6022 10.6815 79.8559 11.899 79.8217C14.2966 79.8712 16.6942 80.3335 19.0918 80.2923C19.939 80.2923 20.2187 80.7876 20.2506 81.5059C20.4664 86.4594 22.904 90.0342 26.9799 92.321C29.0578 93.4933 28.6662 95.3014 28.5783 96.9195C28.4584 98.8762 26.868 99.1486 24.5104 98.8927Z" fill="#BBEF6E"/>
<path d="M85.0817 21.7914C86.0407 22.1629 87.6631 21.2713 87.6391 22.972C87.6391 24.392 86.9598 25.6386 84.9698 25.4487C82.1087 25.1928 79.2955 26.0267 76.4583 26.3734C75.6953 26.4804 74.9266 26.5383 74.1566 26.5468C72.83 26.5468 72.6062 25.3001 72.3904 24.4498C72.1746 23.5994 73.0937 23.4426 73.821 23.3765C74.1487 23.3765 74.4524 23.0546 74.78 23.0133C78.2326 22.5922 81.6851 22.1877 85.0817 21.7914Z" fill="#BBEF6E"/>
<path d="M128.306 52.116C128.081 52.7053 127.691 53 127.136 53H122.222C122.066 53 121.927 52.948 121.806 52.844C121.702 52.7227 121.65 52.584 121.65 52.428L121.676 52.272L127.344 35.658C127.413 35.4327 127.543 35.2333 127.734 35.06C127.925 34.8867 128.185 34.8 128.514 34.8H135.742C136.071 34.8 136.331 34.8867 136.522 35.06C136.713 35.2333 136.843 35.4327 136.912 35.658L142.58 52.272L142.606 52.428C142.606 52.584 142.545 52.7227 142.424 52.844C142.32 52.948 142.19 53 142.034 53H137.12C136.565 53 136.175 52.7053 135.95 52.116L135.3 50.296H128.956L128.306 52.116ZM132.128 39.818L130.282 45.226H133.974L132.128 39.818ZM163.11 34.8C163.301 34.8 163.465 34.8693 163.604 35.008C163.743 35.1467 163.812 35.3113 163.812 35.502V39.688C163.812 39.8787 163.743 40.0433 163.604 40.182C163.465 40.3207 163.301 40.39 163.11 40.39H157.52V52.298C157.52 52.4887 157.451 52.6533 157.312 52.792C157.173 52.9307 157.009 53 156.818 53H151.462C151.271 53 151.107 52.9307 150.968 52.792C150.829 52.6533 150.76 52.4887 150.76 52.298V40.39H145.17C144.979 40.39 144.815 40.3207 144.676 40.182C144.537 40.0433 144.468 39.8787 144.468 39.688V35.502C144.468 35.3113 144.537 35.1467 144.676 35.008C144.815 34.8693 144.979 34.8 145.17 34.8H163.11ZM185.018 34.8C185.208 34.8 185.373 34.8693 185.512 35.008C185.65 35.1467 185.72 35.3113 185.72 35.502V39.454C185.72 39.6447 185.65 39.8093 185.512 39.948C185.373 40.0867 185.208 40.156 185.018 40.156H174.8V41.82H183.328C183.518 41.82 183.683 41.8893 183.822 42.028C183.96 42.1667 184.03 42.3313 184.03 42.522V46.448C184.03 46.6387 183.96 46.8033 183.822 46.942C183.683 47.0807 183.518 47.15 183.328 47.15H174.8V52.298C174.8 52.4887 174.73 52.6533 174.592 52.792C174.453 52.9307 174.288 53 174.098 53H168.482C168.291 53 168.126 52.9307 167.988 52.792C167.849 52.6533 167.78 52.4887 167.78 52.298V35.502C167.78 35.3113 167.849 35.1467 167.988 35.008C168.126 34.8693 168.291 34.8 168.482 34.8H185.018ZM206.744 47.93C206.934 47.93 207.099 47.9993 207.238 48.138C207.376 48.2767 207.446 48.4413 207.446 48.632V52.298C207.446 52.4887 207.376 52.6533 207.238 52.792C207.099 52.9307 206.934 53 206.744 53H190.312C190.121 53 189.956 52.9307 189.818 52.792C189.679 52.6533 189.61 52.4887 189.61 52.298V35.502C189.61 35.3113 189.679 35.1467 189.818 35.008C189.956 34.8693 190.121 34.8 190.312 34.8H206.484C206.674 34.8 206.839 34.8693 206.978 35.008C207.116 35.1467 207.186 35.3113 207.186 35.502V39.168C207.186 39.3587 207.116 39.5233 206.978 39.662C206.839 39.8007 206.674 39.87 206.484 39.87H196.37V41.508H205.054C205.244 41.508 205.409 41.5773 205.548 41.716C205.686 41.8547 205.756 42.0193 205.756 42.21V45.59C205.756 45.7807 205.686 45.9453 205.548 46.084C205.409 46.2227 205.244 46.292 205.054 46.292H196.37V47.93H206.744ZM221.839 41.404C223.746 41.612 225.271 41.95 226.415 42.418C227.577 42.886 228.417 43.5013 228.937 44.264C229.457 45.0267 229.717 45.98 229.717 47.124C229.717 48.372 229.31 49.464 228.495 50.4C227.698 51.3187 226.589 52.0293 225.167 52.532C223.746 53.0173 222.125 53.26 220.305 53.26C218.277 53.26 216.561 53.0087 215.157 52.506C213.753 52.0033 212.705 51.336 212.011 50.504C211.318 49.6547 210.971 48.7273 210.971 47.722C210.971 47.5487 211.023 47.41 211.127 47.306C211.249 47.202 211.396 47.15 211.569 47.15H216.899C217.263 47.15 217.558 47.2627 217.783 47.488C218.078 47.7653 218.407 47.956 218.771 48.06C219.135 48.1467 219.647 48.19 220.305 48.19C221.952 48.19 222.775 47.9387 222.775 47.436C222.775 47.228 222.663 47.0547 222.437 46.916C222.229 46.76 221.848 46.63 221.293 46.526C220.756 46.4047 219.959 46.2833 218.901 46.162C216.527 45.8847 214.707 45.2953 213.441 44.394C212.176 43.4753 211.543 42.184 211.543 40.52C211.543 39.3413 211.899 38.3013 212.609 37.4C213.32 36.4987 214.325 35.7967 215.625 35.294C216.943 34.7913 218.468 34.54 220.201 34.54C222.004 34.54 223.581 34.826 224.933 35.398C226.285 35.9527 227.317 36.646 228.027 37.478C228.738 38.31 229.093 39.1247 229.093 39.922C229.093 40.0953 229.033 40.234 228.911 40.338C228.807 40.442 228.66 40.494 228.469 40.494H222.879C222.585 40.494 222.316 40.39 222.073 40.182C221.883 40.0087 221.657 39.87 221.397 39.766C221.137 39.662 220.739 39.61 220.201 39.61C219.04 39.61 218.459 39.8527 218.459 40.338C218.459 40.598 218.685 40.806 219.135 40.962C219.586 41.1007 220.487 41.248 221.839 41.404ZM251.469 34.8C251.66 34.8 251.825 34.8693 251.963 35.008C252.102 35.1467 252.171 35.3113 252.171 35.502V39.688C252.171 39.8787 252.102 40.0433 251.963 40.182C251.825 40.3207 251.66 40.39 251.469 40.39H245.879V52.298C245.879 52.4887 245.81 52.6533 245.671 52.792C245.533 52.9307 245.368 53 245.177 53H239.821C239.631 53 239.466 52.9307 239.327 52.792C239.189 52.6533 239.119 52.4887 239.119 52.298V40.39H233.529C233.339 40.39 233.174 40.3207 233.035 40.182C232.897 40.0433 232.827 39.8787 232.827 39.688V35.502C232.827 35.3113 232.897 35.1467 233.035 35.008C233.174 34.8693 233.339 34.8 233.529 34.8H251.469ZM268.125 47.67H272.831C273.022 47.67 273.186 47.7393 273.325 47.878C273.464 48.0167 273.533 48.1813 273.533 48.372V52.298C273.533 52.4887 273.464 52.6533 273.325 52.792C273.186 52.9307 273.022 53 272.831 53H256.347C256.156 53 255.992 52.9307 255.853 52.792C255.714 52.6533 255.645 52.4887 255.645 52.298V48.372C255.645 48.1813 255.714 48.0167 255.853 47.878C255.992 47.7393 256.156 47.67 256.347 47.67H261.105V40.13H256.347C256.156 40.13 255.992 40.0607 255.853 39.922C255.714 39.7833 255.645 39.6187 255.645 39.428V35.502C255.645 35.3113 255.714 35.1467 255.853 35.008C255.992 34.8693 256.156 34.8 256.347 34.8H272.831C273.022 34.8 273.186 34.8693 273.325 35.008C273.464 35.1467 273.533 35.3113 273.533 35.502V39.428C273.533 39.6187 273.464 39.7833 273.325 39.922C273.186 40.0607 273.022 40.13 272.831 40.13H268.125V47.67ZM296.325 34.8C296.481 34.8 296.611 34.8607 296.715 34.982C296.836 35.086 296.897 35.216 296.897 35.372L296.871 35.554L290.891 52.142C290.804 52.3847 290.666 52.5927 290.475 52.766C290.284 52.922 290.033 53 289.721 53H283.663C283.351 53 283.1 52.922 282.909 52.766C282.718 52.5927 282.588 52.4107 282.519 52.22L276.487 35.554L276.461 35.372C276.461 35.216 276.513 35.086 276.617 34.982C276.738 34.8607 276.877 34.8 277.033 34.8H282.519C282.831 34.8 283.082 34.8953 283.273 35.086C283.481 35.2593 283.62 35.45 283.689 35.658L286.679 45.616L289.669 35.658C289.738 35.4327 289.868 35.2333 290.059 35.06C290.25 34.8867 290.51 34.8 290.839 34.8H296.325ZM305.025 52.116C304.799 52.7053 304.409 53 303.855 53H298.941C298.785 53 298.646 52.948 298.525 52.844C298.421 52.7227 298.369 52.584 298.369 52.428L298.395 52.272L304.063 35.658C304.132 35.4327 304.262 35.2333 304.453 35.06C304.643 34.8867 304.903 34.8 305.233 34.8H312.461C312.79 34.8 313.05 34.8867 313.241 35.06C313.431 35.2333 313.561 35.4327 313.631 35.658L319.299 52.272L319.325 52.428C319.325 52.584 319.264 52.7227 319.143 52.844C319.039 52.948 318.909 53 318.753 53H313.839C313.284 53 312.894 52.7053 312.669 52.116L312.019 50.296H305.675L305.025 52.116ZM308.847 39.818L307.001 45.226H310.693L308.847 39.818ZM339.335 47.67C339.525 47.67 339.69 47.7393 339.829 47.878C339.967 48.0167 340.037 48.1813 340.037 48.372V52.298C340.037 52.4887 339.967 52.6533 339.829 52.792C339.69 52.9307 339.525 53 339.335 53H324.151C323.96 53 323.795 52.9307 323.657 52.792C323.518 52.6533 323.449 52.4887 323.449 52.298V35.502C323.449 35.3113 323.518 35.1467 323.657 35.008C323.795 34.8693 323.96 34.8 324.151 34.8H329.767C329.957 34.8 330.122 34.8693 330.261 35.008C330.399 35.1467 330.469 35.3113 330.469 35.502V47.67H339.335Z" fill="#BBEF6E"/>
<path d="M141.276 66.824C140.996 66.824 140.763 66.7307 140.576 66.544C140.389 66.3573 140.296 66.1333 140.296 65.872C140.296 65.6013 140.389 65.3773 140.576 65.2C140.763 65.0133 140.996 64.92 141.276 64.92C141.547 64.92 141.775 65.0133 141.962 65.2C142.158 65.3773 142.256 65.6013 142.256 65.872C142.256 66.1333 142.158 66.3573 141.962 66.544C141.775 66.7307 141.547 66.824 141.276 66.824ZM138.56 75V73.992H140.772V69.414C140.772 69.1807 140.655 69.064 140.422 69.064H138.798V68.056H140.702C141.533 68.056 141.948 68.4713 141.948 69.302V73.992H144.16V75H138.56ZM146.605 75V73.992H148.971V66.278C148.971 66.0447 148.854 65.928 148.621 65.928H146.857V64.92H148.901C149.302 64.92 149.61 65.0273 149.825 65.242C150.039 65.4567 150.147 65.7647 150.147 66.166V73.992H152.513V75H146.605ZM154.999 75V73.992H157.365V66.278C157.365 66.0447 157.249 65.928 157.015 65.928H155.251V64.92H157.295C157.697 64.92 158.005 65.0273 158.219 65.242C158.434 65.4567 158.541 65.7647 158.541 66.166V73.992H160.907V75H154.999ZM166.054 75.168C165.214 75.168 164.579 74.916 164.15 74.412C163.72 73.908 163.506 73.18 163.506 72.228V68.056H164.682V72.088C164.682 72.704 164.817 73.1893 165.088 73.544C165.368 73.8893 165.788 74.062 166.348 74.062C166.908 74.062 167.379 73.8753 167.762 73.502C168.144 73.1193 168.336 72.5733 168.336 71.864V68.056H169.512V75H168.532L168.406 73.95H168.336C168.149 74.286 167.855 74.5753 167.454 74.818C167.052 75.0513 166.586 75.168 166.054 75.168ZM175.008 75.168C174.122 75.168 173.403 74.9627 172.852 74.552C172.311 74.132 172.008 73.558 171.942 72.83H173.16C173.216 73.2127 173.403 73.5253 173.72 73.768C174.047 74.0107 174.486 74.132 175.036 74.132C175.559 74.132 175.946 74.02 176.198 73.796C176.46 73.572 176.59 73.3153 176.59 73.026C176.59 72.634 176.436 72.368 176.128 72.228C175.82 72.0787 175.358 71.9667 174.742 71.892C174.005 71.808 173.394 71.6073 172.908 71.29C172.423 70.9727 172.18 70.4967 172.18 69.862C172.18 69.2927 172.418 68.8213 172.894 68.448C173.37 68.0747 174.019 67.888 174.84 67.888C175.652 67.888 176.292 68.0747 176.758 68.448C177.225 68.812 177.491 69.3347 177.556 70.016H176.394C176.366 69.68 176.203 69.414 175.904 69.218C175.615 69.0127 175.251 68.91 174.812 68.91C174.355 68.91 174 68.9987 173.748 69.176C173.496 69.344 173.37 69.568 173.37 69.848C173.37 70.128 173.51 70.3613 173.79 70.548C174.08 70.7253 174.532 70.842 175.148 70.898C175.634 70.954 176.077 71.0473 176.478 71.178C176.88 71.3087 177.197 71.514 177.43 71.794C177.673 72.074 177.794 72.466 177.794 72.97C177.804 73.39 177.687 73.768 177.444 74.104C177.211 74.4307 176.884 74.692 176.464 74.888C176.044 75.0747 175.559 75.168 175.008 75.168ZM184.061 75C183.426 75 182.927 74.846 182.563 74.538C182.199 74.23 182.017 73.6747 182.017 72.872V69.064H180.253V68.056H181.303C181.779 68.056 182.054 67.8227 182.129 67.356L182.325 66.278H183.193V68.056H185.965V69.064H183.193V72.872C183.193 73.264 183.281 73.5393 183.459 73.698C183.645 73.8567 183.963 73.936 184.411 73.936H185.965V75H184.061ZM188.703 75V73.992H190.481V69.414C190.481 69.1807 190.369 69.064 190.145 69.064H188.885V68.056H190.579C190.887 68.056 191.135 68.14 191.321 68.308C191.508 68.476 191.601 68.7233 191.601 69.05V69.344H191.657C191.769 68.8773 191.979 68.518 192.287 68.266C192.605 68.014 193.043 67.888 193.603 67.888H194.877V69.134H193.435C192.866 69.134 192.427 69.3253 192.119 69.708C191.811 70.0813 191.657 70.562 191.657 71.15V73.992H193.841V75H188.703ZM199.534 75.168C198.983 75.168 198.526 75.07 198.162 74.874C197.798 74.678 197.527 74.4213 197.35 74.104C197.173 73.7773 197.084 73.4227 197.084 73.04C197.084 72.3307 197.341 71.794 197.854 71.43C198.377 71.0567 199.072 70.87 199.94 70.87H201.844V70.73C201.844 69.5167 201.289 68.91 200.178 68.91C199.73 68.91 199.352 69.008 199.044 69.204C198.745 69.4 198.554 69.708 198.47 70.128H197.266C197.313 69.6613 197.467 69.26 197.728 68.924C197.999 68.588 198.344 68.3313 198.764 68.154C199.184 67.9767 199.655 67.888 200.178 67.888C201.167 67.888 201.886 68.1493 202.334 68.672C202.791 69.1853 203.02 69.8713 203.02 70.73V75H202.012L201.914 73.922H201.816C201.611 74.258 201.335 74.552 200.99 74.804C200.654 75.0467 200.169 75.168 199.534 75.168ZM199.744 74.132C200.192 74.132 200.57 74.0247 200.878 73.81C201.195 73.5953 201.433 73.3107 201.592 72.956C201.76 72.6013 201.844 72.214 201.844 71.794H200.038C199.403 71.794 198.955 71.9013 198.694 72.116C198.442 72.3307 198.316 72.6153 198.316 72.97C198.316 73.334 198.437 73.6187 198.68 73.824C198.923 74.0293 199.277 74.132 199.744 74.132ZM209.244 75C208.61 75 208.11 74.846 207.746 74.538C207.382 74.23 207.2 73.6747 207.2 72.872V69.064H205.436V68.056H206.486C206.962 68.056 207.238 67.8227 207.312 67.356L207.508 66.278H208.376V68.056H211.148V69.064H208.376V72.872C208.376 73.264 208.465 73.5393 208.642 73.698C208.829 73.8567 209.146 73.936 209.594 73.936H211.148V75H209.244ZM216.911 75.168C216.258 75.168 215.679 75.0187 215.175 74.72C214.671 74.4213 214.274 74.0013 213.985 73.46C213.696 72.9093 213.551 72.2653 213.551 71.528C213.551 70.7907 213.696 70.1513 213.985 69.61C214.274 69.0593 214.671 68.6347 215.175 68.336C215.679 68.0373 216.258 67.888 216.911 67.888C217.564 67.888 218.143 68.0373 218.647 68.336C219.151 68.6347 219.548 69.0593 219.837 69.61C220.126 70.1513 220.271 70.7907 220.271 71.528C220.271 72.2653 220.126 72.9093 219.837 73.46C219.548 74.0013 219.151 74.4213 218.647 74.72C218.143 75.0187 217.564 75.168 216.911 75.168ZM216.911 74.048C217.312 74.048 217.676 73.9593 218.003 73.782C218.33 73.6047 218.586 73.3293 218.773 72.956C218.969 72.5827 219.067 72.1067 219.067 71.528C219.067 70.9493 218.969 70.4733 218.773 70.1C218.586 69.7267 218.33 69.4513 218.003 69.274C217.676 69.0967 217.312 69.008 216.911 69.008C216.519 69.008 216.16 69.0967 215.833 69.274C215.506 69.4513 215.245 69.7267 215.049 70.1C214.853 70.4733 214.755 70.9493 214.755 71.528C214.755 72.396 214.965 73.0353 215.385 73.446C215.805 73.8473 216.314 74.048 216.911 74.048ZM222.281 75V73.992H224.059V69.414C224.059 69.1807 223.947 69.064 223.723 69.064H222.463V68.056H224.157C224.465 68.056 224.713 68.14 224.899 68.308C225.086 68.476 225.179 68.7233 225.179 69.05V69.344H225.235C225.347 68.8773 225.557 68.518 225.865 68.266C226.183 68.014 226.621 67.888 227.181 67.888H228.455V69.134H227.013C226.444 69.134 226.005 69.3253 225.697 69.708C225.389 70.0813 225.235 70.562 225.235 71.15V73.992H227.419V75H222.281ZM241.563 73.25V70.632H238.945V69.568H241.563V66.95H242.627V69.568H245.245V70.632H242.627V73.25H241.563ZM258.646 75.168C258.058 75.168 257.53 75.028 257.064 74.748C256.606 74.468 256.247 74.0573 255.986 73.516C255.724 72.9653 255.594 72.298 255.594 71.514C255.594 70.7393 255.724 70.0813 255.986 69.54C256.247 68.9987 256.606 68.588 257.064 68.308C257.53 68.028 258.058 67.888 258.646 67.888C259.196 67.888 259.649 67.9953 260.004 68.21C260.368 68.4247 260.638 68.7047 260.816 69.05V64.92H261.992V75H261.026L260.9 73.922H260.816C260.629 74.3047 260.354 74.608 259.99 74.832C259.626 75.056 259.178 75.168 258.646 75.168ZM258.8 74.048C259.388 74.048 259.873 73.8427 260.256 73.432C260.638 73.012 260.83 72.3773 260.83 71.528C260.83 70.6787 260.638 70.0487 260.256 69.638C259.873 69.218 259.388 69.008 258.8 69.008C258.212 69.008 257.726 69.218 257.344 69.638C256.97 70.0487 256.784 70.6787 256.784 71.528C256.784 72.3773 256.97 73.012 257.344 73.432C257.726 73.8427 258.212 74.048 258.8 74.048ZM267.348 75.168C266.695 75.168 266.116 75.0187 265.612 74.72C265.117 74.412 264.725 73.9873 264.436 73.446C264.147 72.8953 264.002 72.256 264.002 71.528C264.002 70.8 264.142 70.1653 264.422 69.624C264.711 69.0733 265.108 68.6487 265.612 68.35C266.116 68.042 266.704 67.888 267.376 67.888C268.048 67.888 268.622 68.042 269.098 68.35C269.574 68.6487 269.938 69.0453 270.19 69.54C270.442 70.0347 270.568 70.5667 270.568 71.136C270.568 71.2387 270.563 71.3413 270.554 71.444C270.554 71.5467 270.554 71.6633 270.554 71.794H265.164C265.192 72.3073 265.309 72.7367 265.514 73.082C265.729 73.418 265.995 73.67 266.312 73.838C266.639 74.006 266.984 74.09 267.348 74.09C267.861 74.09 268.263 73.9827 268.552 73.768C268.841 73.5533 269.061 73.2547 269.21 72.872H270.372C270.213 73.516 269.882 74.062 269.378 74.51C268.874 74.9487 268.197 75.168 267.348 75.168ZM267.348 68.938C266.807 68.938 266.331 69.1013 265.92 69.428C265.519 69.7547 265.271 70.212 265.178 70.8H269.406C269.369 70.2213 269.159 69.7687 268.776 69.442C268.403 69.106 267.927 68.938 267.348 68.938ZM275.743 75.168C274.856 75.168 274.137 74.9627 273.587 74.552C273.045 74.132 272.742 73.558 272.677 72.83H273.895C273.951 73.2127 274.137 73.5253 274.455 73.768C274.781 74.0107 275.22 74.132 275.771 74.132C276.293 74.132 276.681 74.02 276.933 73.796C277.194 73.572 277.325 73.3153 277.325 73.026C277.325 72.634 277.171 72.368 276.863 72.228C276.555 72.0787 276.093 71.9667 275.477 71.892C274.739 71.808 274.128 71.6073 273.643 71.29C273.157 70.9727 272.915 70.4967 272.915 69.862C272.915 69.2927 273.153 68.8213 273.629 68.448C274.105 68.0747 274.753 67.888 275.575 67.888C276.387 67.888 277.026 68.0747 277.493 68.448C277.959 68.812 278.225 69.3347 278.291 70.016H277.129C277.101 69.68 276.937 69.414 276.639 69.218C276.349 69.0127 275.985 68.91 275.547 68.91C275.089 68.91 274.735 68.9987 274.483 69.176C274.231 69.344 274.105 69.568 274.105 69.848C274.105 70.128 274.245 70.3613 274.525 70.548C274.814 70.7253 275.267 70.842 275.883 70.898C276.368 70.954 276.811 71.0473 277.213 71.178C277.614 71.3087 277.931 71.514 278.165 71.794C278.407 72.074 278.529 72.466 278.529 72.97C278.538 73.39 278.421 73.768 278.179 74.104C277.945 74.4307 277.619 74.692 277.199 74.888C276.779 75.0747 276.293 75.168 275.743 75.168ZM283.983 66.824C283.703 66.824 283.47 66.7307 283.283 66.544C283.097 66.3573 283.003 66.1333 283.003 65.872C283.003 65.6013 283.097 65.3773 283.283 65.2C283.47 65.0133 283.703 64.92 283.983 64.92C284.254 64.92 284.483 65.0133 284.669 65.2C284.865 65.3773 284.963 65.6013 284.963 65.872C284.963 66.1333 284.865 66.3573 284.669 66.544C284.483 66.7307 284.254 66.824 283.983 66.824ZM281.267 75V73.992H283.479V69.414C283.479 69.1807 283.363 69.064 283.129 69.064H281.505V68.056H283.409C284.24 68.056 284.655 68.4713 284.655 69.302V73.992H286.867V75H281.267ZM292.336 72.956C291.85 72.956 291.416 72.8673 291.034 72.69L290.558 73.264C290.455 73.404 290.427 73.544 290.474 73.684C290.53 73.8147 290.665 73.88 290.88 73.88H292.714C293.544 73.88 294.216 74.0433 294.73 74.37C295.243 74.6873 295.5 75.196 295.5 75.896C295.5 76.316 295.392 76.7033 295.178 77.058C294.963 77.4127 294.622 77.6973 294.156 77.912C293.698 78.136 293.096 78.248 292.35 78.248C291.379 78.248 290.6 78.066 290.012 77.702C289.424 77.338 289.13 76.7827 289.13 76.036C289.13 75.7653 289.195 75.5133 289.326 75.28C289.466 75.056 289.638 74.8553 289.844 74.678C289.573 74.51 289.405 74.258 289.34 73.922C289.284 73.586 289.386 73.2547 289.648 72.928L290.278 72.144C289.83 71.6773 289.606 71.1033 289.606 70.422C289.606 69.974 289.713 69.5587 289.928 69.176C290.142 68.784 290.45 68.4713 290.852 68.238C291.262 68.0047 291.757 67.888 292.336 67.888C292.709 67.888 293.054 67.944 293.372 68.056H295.976V68.938L294.674 68.98V69.078C294.916 69.4793 295.038 69.9273 295.038 70.422C295.038 70.87 294.93 71.29 294.716 71.682C294.51 72.0647 294.202 72.3727 293.792 72.606C293.39 72.8393 292.905 72.956 292.336 72.956ZM292.336 71.948C292.793 71.948 293.166 71.8127 293.456 71.542C293.754 71.2713 293.904 70.898 293.904 70.422C293.904 69.946 293.754 69.5773 293.456 69.316C293.166 69.0453 292.793 68.91 292.336 68.91C291.869 68.91 291.486 69.0453 291.188 69.316C290.889 69.5773 290.74 69.946 290.74 70.422C290.74 70.898 290.889 71.2713 291.188 71.542C291.486 71.8127 291.869 71.948 292.336 71.948ZM290.292 75.994C290.292 76.4047 290.483 76.7127 290.866 76.918C291.248 77.1233 291.743 77.226 292.35 77.226C292.938 77.226 293.414 77.1093 293.778 76.876C294.151 76.6427 294.338 76.33 294.338 75.938C294.338 75.63 294.207 75.3687 293.946 75.154C293.684 74.9487 293.204 74.846 292.504 74.846H290.922C290.502 75.154 290.292 75.5367 290.292 75.994ZM297.888 75V68.056H298.868L298.994 69.106H299.064C299.251 68.77 299.545 68.4853 299.946 68.252C300.348 68.0093 300.81 67.888 301.332 67.888C302.182 67.888 302.816 68.14 303.236 68.644C303.666 69.148 303.88 69.876 303.88 70.828V75H302.704V70.968C302.704 70.352 302.569 69.8713 302.298 69.526C302.028 69.1713 301.608 68.994 301.038 68.994C300.488 68.994 300.021 69.1853 299.638 69.568C299.256 69.9413 299.064 70.4827 299.064 71.192V75H297.888ZM309.321 75.168C308.667 75.168 308.089 75.0187 307.585 74.72C307.09 74.412 306.698 73.9873 306.409 73.446C306.119 72.8953 305.975 72.256 305.975 71.528C305.975 70.8 306.115 70.1653 306.395 69.624C306.684 69.0733 307.081 68.6487 307.585 68.35C308.089 68.042 308.677 67.888 309.349 67.888C310.021 67.888 310.595 68.042 311.071 68.35C311.547 68.6487 311.911 69.0453 312.163 69.54C312.415 70.0347 312.541 70.5667 312.541 71.136C312.541 71.2387 312.536 71.3413 312.527 71.444C312.527 71.5467 312.527 71.6633 312.527 71.794H307.137C307.165 72.3073 307.281 72.7367 307.487 73.082C307.701 73.418 307.967 73.67 308.285 73.838C308.611 74.006 308.957 74.09 309.321 74.09C309.834 74.09 310.235 73.9827 310.525 73.768C310.814 73.5533 311.033 73.2547 311.183 72.872H312.345C312.186 73.516 311.855 74.062 311.351 74.51C310.847 74.9487 310.17 75.168 309.321 75.168ZM309.321 68.938C308.779 68.938 308.303 69.1013 307.893 69.428C307.491 69.7547 307.244 70.212 307.151 70.8H311.379C311.341 70.2213 311.131 69.7687 310.749 69.442C310.375 69.106 309.899 68.938 309.321 68.938ZM314.621 75V73.992H316.399V69.414C316.399 69.1807 316.287 69.064 316.063 69.064H314.803V68.056H316.497C316.805 68.056 317.053 68.14 317.239 68.308C317.426 68.476 317.519 68.7233 317.519 69.05V69.344H317.575C317.687 68.8773 317.897 68.518 318.205 68.266C318.523 68.014 318.961 67.888 319.521 67.888H320.795V69.134H319.353C318.784 69.134 318.345 69.3253 318.037 69.708C317.729 70.0813 317.575 70.562 317.575 71.15V73.992H319.759V75H314.621Z" fill="#B6B1BB"/>
</svg>
